<?xml version="1.0" encoding="utf-8"?>
<!DOCTYPE svg PUBLIC "-//W3C//DTD SVG 20010904//EN" "http://www.w3.org/TR/2001/REC-SVG-20010904/DTD/svg10.dtd">
<svg version="1.0" xmlns="http://www.w3.org/2000/svg" width="253px" height="452px" viewBox="0 0 253 452" preserveAspectRatio="xMidYMid meet">
 <g>
  <path d="M120.2 398.3 c-4.6 -2.2 -8.9 -7.5 -10.3 -12.5 -1.7 -6.5 -0.5 -13.2 6.1 -32.6 3.3 -9.8 6.2 -20.2 6.6 -23.3 l0.6 -5.6 -5.3 0.4 c-5.5 0.5 -11.2 2.3 -27.4 8.7 -14.7 5.8 -23.6 4.7 -29.7 -3.4 -4.3 -5.9 -3.5 -15.1 1.9 -21.1 6.8 -7.5 15.7 -7.6 33.8 -0.4 12.2 4.8 18.1 6.4 23.4 6.5 l3.4 0 -0.7 -4.2 c-1.2 -7.3 -5.2 -14.6 -11.2 -20.3 l-5.6 -5.4 4.7 -7.5 c7.1 -11.4 12.5 -29.9 12.5 -42.8 l0 -5.1 -5.7 0.5 c-3.5 0.4 -11.1 2.6 -19.1 5.7 -20.6 8 -30.5 9.8 -37.9 7 -3.4 -1.3 -8 -5.5 -9.9 -9.1 -2.3 -4.3 -1.8 -12.5 1 -17.2 3.7 -6.2 9.4 -9.1 18.1 -9 6 0.1 9.2 0.9 21.6 5.7 12.5 4.8 26.6 8.7 31.1 8.7 1.8 0 1.2 -11.5 -1.2 -23.8 -2.1 -10.3 -6.1 -19.9 -11.6 -27.3 l-3.5 -4.8 5.9 -5.8 c6.1 -6 9.2 -12.1 10.7 -21 l0.7 -4.3 -4.1 0 c-2.4 0 -9.6 2 -17.6 5 -22.2 8.2 -30.9 8.8 -38.4 2.4 -8.1 -6.8 -6.2 -22.3 3.3 -26.8 7 -3.3 15.6 -2 35.3 5.5 5.7 2.1 12.7 4.2 15.8 4.5 l5.5 0.7 0 -4.1 c0 -4.8 -2.4 -13 -9.1 -30.4 -4.2 -10.9 -5 -14.1 -5 -19.8 0 -7.9 1.6 -12.3 6.1 -16.8 5.5 -5.3 13.4 -6.6 20.5 -3.3 7.6 3.5 10.5 9.2 10.5 20.7 0 6.9 -0.5 8.9 -5.4 21.3 -4.8 11.9 -8.6 25.6 -8.6 30.7 0 3 10.1 1.2 25 -4.6 17.1 -6.6 26.2 -7.7 33 -3.9 10.4 5.9 10.9 20.8 0.8 28.2 -3.5 2.6 -12.9 3.4 -19.5 1.7 -2.7 -0.6 -10 -3.2 -16.3 -5.7 -6.3 -2.5 -14.1 -4.9 -17.3 -5.3 l-5.9 -0.7 0.7 4.6 c1.3 8.8 4.3 14.8 10.6 21.1 l6 6 -4 6.9 c-2.3 3.8 -5.5 10.3 -7.1 14.5 -4.3 10.7 -7.7 34.6 -5 34.6 4.4 0 18.7 -4.1 30.9 -8.7 12.4 -4.8 15.6 -5.6 21.6 -5.7 5.7 -0.1 7.8 0.4 11.3 2.4 5.9 3.3 9.2 9.1 9.2 15.9 0 5.8 -1.5 9.3 -5.7 13.3 -7.8 7.4 -17.8 6.7 -43.5 -3.3 -8 -3.1 -15.6 -5.3 -19 -5.7 l-5.8 -0.5 0 4.5 c0 7 2.7 21 5.5 28.5 1.4 3.7 4.6 10.3 7.1 14.6 l4.6 7.7 -6 6.4 c-6 6.5 -9.1 12.6 -10.6 21 l-0.7 3.9 4.3 -0.6 c2.4 -0.3 9.9 -2.7 16.6 -5.2 21.8 -8.1 28.6 -9.1 36.2 -5.2 6.7 3.4 8.5 6.5 8.5 14.7 0 5.4 -0.4 7.5 -2.1 9.7 -6.1 8.2 -14.8 9.5 -29.4 4.2 -19.9 -7.2 -24.8 -8.7 -29.4 -9.2 l-4.8 -0.5 0.7 5.6 c0.8 6.8 2.9 13.4 8.2 26.2 4.8 11.5 6.4 17.8 6.4 24.6 0 5.5 -2.4 11.5 -5.8 14.6 -5.1 4.6 -15 6.1 -21.1 3.1z"/>
 </g>
 <g>
  <path d="M144 289.5 c1.9 -1.9 3.6 -3.5 3.9 -3.5 0.3 0 -1 1.6 -2.9 3.5 -1.9 1.9 -3.6 3.5 -3.9 3.5 -0.3 0 1 -1.6 2.9 -3.5z"/>
  <path d="M123 233.1 c0 -2.3 -0.5 -3.1 -2.2 -3.4 -2 -0.4 -1.9 -0.4 0.5 -0.6 2.5 -0.1 2.7 0.2 2.7 3.4 0 1.9 -0.2 3.5 -0.5 3.5 -0.3 0 -0.5 -1.3 -0.5 -2.9z"/>
  <path d="M123.3 216 c0 -2.5 0.2 -3.5 0.4 -2.2 0.2 1.2 0.2 3.2 0 4.5 -0.2 1.2 -0.4 0.2 -0.4 -2.3z"/>
  <path d="M66.8 207.3 c1.2 -0.2 3.2 -0.2 4.5 0 1.2 0.2 0.2 0.4 -2.3 0.4 -2.5 0 -3.5 -0.2 -2.2 -0.4z"/>
  <path d="M183.8 207.3 c1.2 -0.2 3.2 -0.2 4.5 0 1.2 0.2 0.2 0.4 -2.3 0.4 -2.5 0 -3.5 -0.2 -2.2 -0.4z"/>
  <path d="M121 135 l-2.5 -0.8 2.8 -0.1 c1.5 -0.1 2.7 0.4 2.7 0.9 0 0.6 -0.1 1 -0.2 0.9 -0.2 -0.1 -1.4 -0.5 -2.8 -0.9z"/>
  <path d="M121.2 126.3 c0.9 -0.2 1.9 -1.4 2.1 -2.6 0.4 -1.8 0.5 -1.7 0.6 0.6 0.1 2.2 -0.3 2.7 -2.1 2.6 -1.6 -0.1 -1.8 -0.3 -0.6 -0.6z"/>
 </g>
</svg>
